HIERARCHY
ROOT newVegas:Hips
{
	OFFSET 0.000000 96.479958 0.000000
	CHANNELS 6 Xposition Yposition Zposition Xrotation Yrotation Zrotation
	JOINT newVegas:Pelvis
	{
		OFFSET 0.000000 0.000000 0.000000
		CHANNELS 3 Xrotation Yrotation Zrotation
		JOINT newVegas:LeftUpLeg
		{
			OFFSET 18.735201 -5.666702 -4.541200
			CHANNELS 3 Xrotation Yrotation Zrotation
			JOINT newVegas:LeftLeg
			{
				OFFSET -0.021200 -31.938179 0.493100
				CHANNELS 3 Xrotation Yrotation Zrotation
				JOINT newVegas:LeftFoot
				{
					OFFSET 0.021200 -31.938179 -4.336299
					CHANNELS 3 Xrotation Yrotation Zrotation
					JOINT newVegas:LeftToeBase
					{
						OFFSET 0.943001 -26.722000 15.023500
						CHANNELS 3 Xrotation Yrotation Zrotation
						End Site
						{
							OFFSET 0.000000 30.670183 0.000000
						}
					}
				}
				JOINT newVegas:Left_PantLeg
				{
					OFFSET 0.663870 -9.044666 -1.108900
					CHANNELS 3 Xrotation Yrotation Zrotation
					End Site
					{
						OFFSET 1.415995 20.635357 0.000000
					}
				}
			}
		}
		JOINT newVegas:RightUpLeg
		{
			OFFSET -18.735201 -5.666702 -4.541200
			CHANNELS 3 Xrotation Yrotation Zrotation
			JOINT newVegas:RightLeg
			{
				OFFSET 0.018946 -31.938133 0.493100
				CHANNELS 3 Xrotation Yrotation Zrotation
				JOINT newVegas:RightFoot
				{
					OFFSET -0.018946 -31.938126 -4.336299
					CHANNELS 3 Xrotation Yrotation Zrotation
					JOINT newVegas:RightToeBase
					{
						OFFSET -0.943001 -26.722004 15.023500
						CHANNELS 3 Xrotation Yrotation Zrotation
						End Site
						{
							OFFSET 0.000000 30.670187 0.000000
						}
					}
				}
				JOINT newVegas:Right_PantLeg
				{
					OFFSET -0.661674 -9.044716 -1.108900
					CHANNELS 3 Xrotation Yrotation Zrotation
					End Site
					{
						OFFSET -1.415958 20.635269 0.000000
					}
				}
			}
		}
	}
	JOINT newVegas:Spine
	{
		OFFSET 0.000000 10.199997 -0.299500
		CHANNELS 3 Xrotation Yrotation Zrotation
		JOINT newVegas:Spine1
		{
			OFFSET 0.000000 11.900002 -1.516600
			CHANNELS 3 Xrotation Yrotation Zrotation
			JOINT newVegas:Spine2
			{
				OFFSET 0.000000 13.600006 -2.842500
				CHANNELS 3 Xrotation Yrotation Zrotation
				JOINT newVegas:Neck
				{
					OFFSET 0.000000 9.624100 -2.890100
					CHANNELS 3 Xrotation Yrotation Zrotation
					JOINT newVegas:Head
					{
						OFFSET 0.000000 14.068802 -1.351900
						CHANNELS 3 Xrotation Yrotation Zrotation
						JOINT newVegas:Hair_Back
						{
							OFFSET 0.000000 3.231903 -17.524799
							CHANNELS 3 Xrotation Yrotation Zrotation
							End Site
							{
								OFFSET 0.000000 19.849884 0.000000
							}
						}
						JOINT newVegas:Hair_Front
						{
							OFFSET 0.000000 31.260406 4.573800
							CHANNELS 3 Xrotation Yrotation Zrotation
							JOINT newVegas:Hair_Front1
							{
								OFFSET 0.000000 2.284103 11.993300
								CHANNELS 3 Xrotation Yrotation Zrotation
								JOINT newVegas:Hair_Front2
								{
									OFFSET 0.000000 2.284103 11.993300
									CHANNELS 3 Xrotation Yrotation Zrotation
									End Site
									{
										OFFSET 0.000000 12.208862 0.000000
									}
								}
							}
						}
						JOINT newVegas:Jowel
						{
							OFFSET 0.000000 -7.458206 6.864100
							CHANNELS 3 Xrotation Yrotation Zrotation
							End Site
							{
								OFFSET 0.000000 19.849884 0.000000
							}
						}
					}
				}
				JOINT newVegas:LeftShoulder
				{
					OFFSET 15.263000 10.923401 -0.547700
					CHANNELS 3 Xrotation Yrotation Zrotation
					JOINT newVegas:LeftArm
					{
						OFFSET 25.438599 -2.830597 -13.032500
						CHANNELS 3 Xrotation Yrotation Zrotation
						JOINT newVegas:LeftForeArm
						{
							OFFSET 29.960503 0.000000 0.000000
							CHANNELS 3 Xrotation Yrotation Zrotation
							JOINT newVegas:LeftHand
							{
								OFFSET 27.849251 0.000000 0.000000
								CHANNELS 3 Xrotation Yrotation Zrotation
								JOINT newVegas:LeftHandThumb1
								{
									OFFSET 4.487587 -3.305161 6.305391
									CHANNELS 3 Xrotation Yrotation Zrotation
									JOINT newVegas:LeftHandThumb2
									{
										OFFSET 5.480453 -3.164139 3.164143
										CHANNELS 3 Xrotation Yrotation Zrotation
										JOINT newVegas:LeftHandThumb3
										{
											OFFSET 5.159721 -2.978973 2.978967
											CHANNELS 3 Xrotation Yrotation Zrotation
											End Site
											{
												OFFSET 2.494507 5.926697 1.738678
											}
										}
									}
								}
								JOINT newVegas:LeftHandIndex1
								{
									OFFSET 18.578728 -0.527832 5.208049
									CHANNELS 3 Xrotation Yrotation Zrotation
									JOINT newVegas:LeftHandIndex2
									{
										OFFSET 3.192009 0.000000 0.000000
										CHANNELS 3 Xrotation Yrotation Zrotation
										JOINT newVegas:LeftHandIndex3
										{
											OFFSET 3.835129 0.000000 0.000000
											CHANNELS 3 Xrotation Yrotation Zrotation
											End Site
											{
												OFFSET -0.034599 3.816971 0.371180
											}
										}
									}
								}
								JOINT newVegas:LeftHandMiddle1
								{
									OFFSET 18.476105 0.000000 0.000000
									CHANNELS 3 Xrotation Yrotation Zrotation
									JOINT newVegas:LeftHandMiddle2
									{
										OFFSET 3.324875 0.000000 0.000000
										CHANNELS 3 Xrotation Yrotation Zrotation
										JOINT newVegas:LeftHandMiddle3
										{
											OFFSET 4.596550 0.000000 0.000000
											CHANNELS 3 Xrotation Yrotation Zrotation
											End Site
											{
												OFFSET 0.057701 4.578827 0.399218
											}
										}
									}
								}
								JOINT newVegas:LeftHandRing1
								{
									OFFSET 17.732719 0.121887 -4.201567
									CHANNELS 3 Xrotation Yrotation Zrotation
									JOINT newVegas:LeftHandRing2
									{
										OFFSET 2.733170 0.000000 0.000000
										CHANNELS 3 Xrotation Yrotation Zrotation
										JOINT newVegas:LeftHandRing3
										{
											OFFSET 3.178268 0.000000 0.000000
											CHANNELS 3 Xrotation Yrotation Zrotation
											End Site
											{
												OFFSET 0.119102 3.170624 0.185394
											}
										}
									}
								}
								JOINT newVegas:LeftHandPinky1
								{
									OFFSET 15.989624 -0.606689 -7.535461
									CHANNELS 3 Xrotation Yrotation Zrotation
									JOINT newVegas:LeftHandPinky2
									{
										OFFSET 2.538986 0.000000 0.000000
										CHANNELS 3 Xrotation Yrotation Zrotation
										JOINT newVegas:LeftHandPinky3
										{
											OFFSET 2.593102 0.000000 0.000000
											CHANNELS 3 Xrotation Yrotation Zrotation
											End Site
											{
												OFFSET -0.150902 2.584198 0.152708
											}
										}
									}
								}
							}
							JOINT newVegas:Left_Sleeve
							{
								OFFSET 0.267448 -0.649796 0.577675
								CHANNELS 3 Xrotation Yrotation Zrotation
								End Site
								{
									OFFSET 0.000000 15.991241 0.000000
								}
							}
							JOINT newVegas:Left_CapeC
							{
								OFFSET 15.715958 -8.608795 -6.935905
								CHANNELS 3 Xrotation Yrotation Zrotation
								JOINT newVegas:Left_CapeC1
								{
									OFFSET 0.000000 -8.688499 0.000000
									CHANNELS 3 Xrotation Yrotation Zrotation
									End Site
									{
										OFFSET 0.000000 8.688499 0.000000
									}
								}
							}
						}
						JOINT newVegas:Left_CapeB
						{
							OFFSET 26.118385 -8.608795 -7.079235
							CHANNELS 3 Xrotation Yrotation Zrotation
							JOINT newVegas:Left_CapeB1
							{
								OFFSET 0.000000 -8.688499 0.000000
								CHANNELS 3 Xrotation Yrotation Zrotation
								End Site
								{
									OFFSET 0.000000 8.688499 0.000000
								}
							}
						}
						JOINT newVegas:Left_CapeA
						{
							OFFSET 5.115639 -8.608795 -10.395809
							CHANNELS 3 Xrotation Yrotation Zrotation
							JOINT newVegas:Left_CapeA1
							{
								OFFSET 0.000000 -8.688499 0.000000
								CHANNELS 3 Xrotation Yrotation Zrotation
								End Site
								{
									OFFSET 0.000000 8.688499 0.000000
								}
							}
						}
					}
				}
				JOINT newVegas:RightShoulder
				{
					OFFSET -15.263000 10.923401 -0.547700
					CHANNELS 3 Xrotation Yrotation Zrotation
					JOINT newVegas:RightArm
					{
						OFFSET -25.438599 -2.830597 -13.032500
						CHANNELS 3 Xrotation Yrotation Zrotation
						JOINT newVegas:RightForeArm
						{
							OFFSET -29.960503 0.000000 0.000000
							CHANNELS 3 Xrotation Yrotation Zrotation
							JOINT newVegas:RightHand
							{
								OFFSET -27.849251 0.000000 0.000000
								CHANNELS 3 Xrotation Yrotation Zrotation
								JOINT newVegas:RightHandThumb1
								{
									OFFSET -4.487587 -3.305161 6.305391
									CHANNELS 3 Xrotation Yrotation Zrotation
									JOINT newVegas:RightHandThumb2
									{
										OFFSET -5.480453 -3.164139 3.164143
										CHANNELS 3 Xrotation Yrotation Zrotation
										JOINT newVegas:RightHandThumb3
										{
											OFFSET -5.159721 -2.978973 2.978967
											CHANNELS 3 Xrotation Yrotation Zrotation
											End Site
											{
												OFFSET -2.494507 5.926697 1.738678
											}
										}
									}
								}
								JOINT newVegas:RightHandIndex1
								{
									OFFSET -18.578728 -0.527832 5.208049
									CHANNELS 3 Xrotation Yrotation Zrotation
									JOINT newVegas:RightHandIndex2
									{
										OFFSET -3.192009 0.000000 0.000000
										CHANNELS 3 Xrotation Yrotation Zrotation
										JOINT newVegas:RightHandIndex3
										{
											OFFSET -3.835129 0.000000 0.000000
											CHANNELS 3 Xrotation Yrotation Zrotation
											End Site
											{
												OFFSET 0.034599 3.816971 0.371180
											}
										}
									}
								}
								JOINT newVegas:RightHandMiddle1
								{
									OFFSET -18.476105 0.000000 0.000000
									CHANNELS 3 Xrotation Yrotation Zrotation
									JOINT newVegas:RightHandMiddle2
									{
										OFFSET -3.324875 0.000000 0.000000
										CHANNELS 3 Xrotation Yrotation Zrotation
										JOINT newVegas:RightHandMiddle3
										{
											OFFSET -4.596550 0.000000 0.000000
											CHANNELS 3 Xrotation Yrotation Zrotation
											End Site
											{
												OFFSET -0.057701 4.578827 0.399218
											}
										}
									}
								}
								JOINT newVegas:RightHandRing1
								{
									OFFSET -17.732719 0.121887 -4.201567
									CHANNELS 3 Xrotation Yrotation Zrotation
									JOINT newVegas:RightHandRing2
									{
										OFFSET -2.733170 0.000000 0.000000
										CHANNELS 3 Xrotation Yrotation Zrotation
										JOINT newVegas:RightHandRing3
										{
											OFFSET -3.178268 0.000000 0.000000
											CHANNELS 3 Xrotation Yrotation Zrotation
											End Site
											{
												OFFSET -0.119102 3.170624 0.185394
											}
										}
									}
								}
								JOINT newVegas:RightHandPinky1
								{
									OFFSET -15.989624 -0.606689 -7.535461
									CHANNELS 3 Xrotation Yrotation Zrotation
									JOINT newVegas:RightHandPinky2
									{
										OFFSET -2.538986 0.000000 0.000000
										CHANNELS 3 Xrotation Yrotation Zrotation
										JOINT newVegas:RightHandPinky3
										{
											OFFSET -2.593102 0.000000 0.000000
											CHANNELS 3 Xrotation Yrotation Zrotation
											End Site
											{
												OFFSET 0.150902 2.584198 0.152708
											}
										}
									}
								}
							}
							JOINT newVegas:Right_CapeC
							{
								OFFSET -15.715958 -8.608795 -6.935905
								CHANNELS 3 Xrotation Yrotation Zrotation
								JOINT newVegas:Right_CapeC1
								{
									OFFSET 0.000000 -8.688499 0.000000
									CHANNELS 3 Xrotation Yrotation Zrotation
									End Site
									{
										OFFSET 0.000000 8.688499 0.000000
									}
								}
							}
							JOINT newVegas:Right_Sleeve
							{
								OFFSET -0.267448 -0.649994 0.577675
								CHANNELS 3 Xrotation Yrotation Zrotation
								End Site
								{
									OFFSET 0.000000 15.991302 0.000000
								}
							}
						}
						JOINT newVegas:Right_CapeA
						{
							OFFSET -5.115540 -8.608795 -10.395824
							CHANNELS 3 Xrotation Yrotation Zrotation
							JOINT newVegas:Right_CapeA1
							{
								OFFSET 0.000000 -8.688499 0.000000
								CHANNELS 3 Xrotation Yrotation Zrotation
								End Site
								{
									OFFSET 0.000000 8.688499 0.000000
								}
							}
						}
						JOINT newVegas:Right_CapeB
						{
							OFFSET -26.118187 -8.608795 -7.079266
							CHANNELS 3 Xrotation Yrotation Zrotation
							JOINT newVegas:Right_CapeB1
							{
								OFFSET 0.000000 -8.688499 0.000000
								CHANNELS 3 Xrotation Yrotation Zrotation
								End Site
								{
									OFFSET 0.000000 8.688499 0.000000
								}
							}
						}
					}
				}
				JOINT newVegas:Left_Collar
				{
					OFFSET 18.625099 8.655502 8.828100
					CHANNELS 3 Xrotation Yrotation Zrotation
					JOINT newVegas:Left_Collar1
					{
						OFFSET 14.783401 10.540405 -1.259500
						CHANNELS 3 Xrotation Yrotation Zrotation
						End Site
						{
							OFFSET 0.000000 18.199875 0.000000
						}
					}
				}
				JOINT newVegas:Collar_Back
				{
					OFFSET 0.000000 15.630707 -20.132601
					CHANNELS 3 Xrotation Yrotation Zrotation
					End Site
					{
						OFFSET 0.000000 22.523010 0.000000
					}
				}
				JOINT newVegas:Left_Peck
				{
					OFFSET 17.239599 -5.132599 25.482599
					CHANNELS 3 Xrotation Yrotation Zrotation
					End Site
					{
						OFFSET 0.000000 22.523010 0.000000
					}
				}
				JOINT newVegas:Right_Peck
				{
					OFFSET -17.239599 -5.132202 25.482599
					CHANNELS 3 Xrotation Yrotation Zrotation
					End Site
					{
						OFFSET 0.000000 22.523010 0.000000
					}
				}
				JOINT newVegas:Right_Collar
				{
					OFFSET -18.625099 8.655792 8.828100
					CHANNELS 3 Xrotation Yrotation Zrotation
					JOINT newVegas:Right_Collar1
					{
						OFFSET -14.783401 10.539993 -1.259500
						CHANNELS 3 Xrotation Yrotation Zrotation
						End Site
						{
							OFFSET 0.000000 18.199631 0.000000
						}
					}
				}
			}
		}
		JOINT newVegas:Belly
		{
			OFFSET 0.000000 -6.540398 9.014299
			CHANNELS 3 Xrotation Yrotation Zrotation
			End Site
			{
				OFFSET 0.000000 11.566666 0.000000
			}
		}
	}
	JOINT newVegas:ElvisFacialAnim_Joint
	{
		OFFSET 1.000000 -95.330101 -8.825800
		CHANNELS 3 Xrotation Yrotation Zrotation
		End Site
		{
			OFFSET 0.000000 35.315800 0.000000
		}
	}
}
MOTION
Frames: 4
Frame Time: 0.033333
1.359784 82.985100 5.839058 1.228745 2.647234 -0.393028 0.000000 -0.000000 0.000000 -42.485986 -3.898044 26.208327 54.675545 -5.023964 -7.534675 -12.789382 -7.230153 -13.324063 0.000000 -0.000000 -0.000000 0.000000 -0.000000 -0.000000 -39.960852 -2.667714 -27.281254 54.123075 1.163613 -0.603130 -13.392321 1.188449 19.359878 0.000000 0.000002 -0.000000 -0.000003 -0.000001 0.000000 15.567630 -0.469100 0.271654 18.821148 -1.006077 0.577379 11.743960 -1.085082 0.359621 0.828583 0.418312 -0.293333 0.828602 0.418312 -0.293333 -0.000001 0.000000 -0.000000 0.828580 0.418312 -0.293333 0.828597 0.418313 -0.293333 0.000002 0.000000 -0.000000 -0.000001 0.000000 -0.000000 18.388083 -15.869968 6.832899 -32.323525 -18.022253 -39.333208 0.828640 -56.831945 -11.958513 -54.784138 -19.506913 -15.020219 35.833331 7.552116 -17.113316 2.538363 24.527805 15.364806 0.000001 0.000002 -0.000004 0.672502 9.497037 -25.048793 0.411073 2.070145 -22.460051 -0.000001 -0.000001 -0.000000 0.705356 9.565036 -25.850302 0.440340 2.139546 -23.257230 -0.000000 -0.000000 0.000001 0.737003 9.628409 -26.602212 0.468684 2.204265 -24.004908 0.000002 -0.000001 0.000000 0.759807 9.685649 -27.334595 0.488552 2.262429 -24.734266 0.000003 -0.000002 -0.000001 -0.000000 -0.000001 -0.000002 -0.000000 -0.000001 -0.000002 -0.000001 -0.000001 -0.000002 -0.000000 0.000000 0.000002 -0.000000 -0.000001 0.000002 -0.000000 0.000000 0.000002 -0.000001 0.000001 0.000001 16.981180 16.848221 -3.966373 -22.754721 3.838799 42.121398 -45.212075 67.718785 48.739311 -11.818137 6.883286 12.379153 50.010314 8.024750 11.877713 4.528163 -26.299585 -22.724944 0.000000 -0.000000 -0.000000 17.741100 -0.630767 33.792050 -3.836505 8.291572 33.239221 0.000001 0.000003 -0.000002 -3.754593 -1.823638 29.913012 0.588084 -2.446679 26.873019 0.000000 -0.000001 -0.000001 -13.387947 -9.578747 27.545441 -9.535374 -8.449009 26.421462 -0.000001 0.000002 0.000000 -14.873884 -3.364998 34.313545 0.525006 -2.507038 28.673564 -0.000002 0.000002 -0.000000 0.000003 0.000001 -0.000000 0.000003 0.000001 -0.000001 0.000003 0.000001 -0.000000 -0.000001 0.000000 0.000002 -0.000001 0.000001 0.000003 -0.000001 0.000000 0.000002 -0.000001 0.000001 0.000003 0.000001 -0.000000 -0.000000 0.000001 -0.000000 -0.000000 0.000001 -0.000000 -0.000000 0.000001 -0.000000 -0.000000 0.000001 -0.000000 -0.000000 0.000001 -0.000000 -0.000000 0.000001 -0.000000 -0.000000 -0.000000 -0.000000 0.000000 0.000000 -0.000000 0.000000 
0.797810 83.199669 5.164086 1.063747 1.295626 -0.719298 -0.000000 -0.000000 0.000000 -41.935142 -3.400103 27.508471 53.626284 -5.110487 -7.336195 -12.150834 -7.176872 -13.923731 0.000000 0.000000 -0.000000 0.000000 -0.000001 -0.000001 -41.351106 -4.667997 -26.756069 52.653491 3.773429 -1.432308 -11.797103 1.736694 18.614197 -0.000000 0.000000 0.000000 0.000001 0.000002 -0.000002 15.973646 -0.437996 0.598411 19.237704 -0.931582 1.277591 11.918168 -1.085325 1.091911 0.716525 0.350062 -0.215816 0.716536 0.350062 -0.215816 0.000003 -0.000000 -0.000000 0.716544 0.350064 -0.215817 0.716623 0.350058 -0.215816 -0.000003 0.000000 0.000000 0.000003 -0.000000 -0.000000 19.442501 -16.778840 7.756879 -33.084931 -17.709243 -38.064381 -1.065909 -54.331283 -16.446191 -54.784145 -19.506913 -15.020216 36.336839 8.106573 -16.975177 2.408637 23.730966 15.238948 0.000002 0.000002 -0.000004 0.661628 9.473916 -24.777524 0.401381 2.046563 -22.190250 -0.000003 -0.000000 -0.000000 0.676565 9.505526 -25.148555 0.414658 2.078800 -22.559285 -0.000001 -0.000000 0.000000 0.690716 9.534990 -25.495628 0.427280 2.108889 -22.904484 0.000002 -0.000002 -0.000000 0.695937 9.559367 -25.834168 0.431334 2.133431 -23.242323 -0.000000 -0.000002 -0.000001 0.000000 -0.000001 -0.000001 0.000000 -0.000001 -0.000001 -0.000000 -0.000001 -0.000001 -0.000001 0.000002 0.000000 -0.000000 0.000001 0.000000 -0.000001 0.000002 0.000000 -0.000001 0.000002 0.000000 17.459130 16.585439 -5.161505 -24.308727 6.030419 42.049691 -44.442716 66.910890 46.826083 -13.328009 2.999597 13.547954 47.510567 7.164300 14.549993 5.307529 -24.636921 -21.055730 -0.000000 -0.000003 -0.000001 18.137058 -0.187765 36.124993 -4.040145 8.698472 33.461401 -0.000003 0.000000 -0.000002 -3.635118 -2.128560 31.870004 0.675617 -2.612155 28.856409 0.000003 0.000000 0.000000 -13.085581 -9.832806 29.571697 -9.264283 -8.587354 28.442499 0.000002 0.000001 0.000000 -15.850566 -3.387303 35.333409 0.593808 -2.605039 29.309339 0.000000 -0.000004 -0.000000 -0.000000 0.000004 -0.000002 -0.000000 0.000002 -0.000000 -0.000000 0.000004 -0.000002 -0.000001 0.000000 -0.000002 -0.000001 0.000001 -0.000001 -0.000001 0.000000 -0.000002 -0.000001 0.000001 -0.000001 0.000003 -0.000000 -0.000000 0.000003 -0.000000 -0.000000 0.000003 -0.000000 -0.000000 0.000003 -0.000000 -0.000000 0.000003 -0.000000 -0.000000 0.000003 -0.000000 -0.000000 0.000003 -0.000000 -0.000000 -0.000001 -0.000000 -0.000000 -0.000000 -0.000000 0.000000 
0.351673 83.357208 4.692554 0.591867 0.412368 -1.033935 -0.000000 -0.000000 0.000000 -41.228166 -3.001256 29.075846 52.756012 -5.669604 -7.952317 -11.558724 -7.271635 -13.896376 0.000000 -0.000000 0.000000 0.000001 0.000000 -0.000000 -42.156706 -6.263893 -26.325347 52.158275 5.569980 -1.767792 -10.908175 2.171398 17.279457 -0.000000 -0.000000 -0.000000 0.000000 0.000003 -0.000000 16.332743 -0.240728 0.648067 19.700685 -0.536021 1.394607 12.227902 -0.700144 1.278527 0.649936 0.193948 -0.305235 0.649984 0.193947 -0.305235 -0.000001 0.000000 -0.000000 0.649957 0.193948 -0.305235 0.650005 0.193947 -0.305235 -0.000001 -0.000000 0.000000 -0.000001 0.000000 -0.000000 20.173213 -17.398765 8.439697 -33.466124 -17.447959 -37.188724 -2.230393 -52.708840 -19.348679 -54.784145 -19.506909 -15.020216 36.660419 8.460082 -16.891621 2.324860 23.222759 15.158705 -0.000000 -0.000007 -0.000005 0.654746 9.459134 -24.604478 0.395264 2.031483 -22.018134 -0.000002 -0.000001 -0.000001 0.658609 9.467363 -24.700937 0.398658 2.039888 -22.114074 -0.000006 0.000001 0.000001 0.662148 9.474957 -24.789888 0.401815 2.047629 -22.202566 0.000002 0.000001 0.000001 0.656982 9.477969 -24.877402 0.396611 2.050388 -22.290715 0.000003 -0.000002 -0.000002 0.000000 0.000002 -0.000001 0.000000 0.000002 -0.000001 -0.000001 0.000002 -0.000001 -0.000001 0.000000 0.000000 -0.000001 -0.000001 0.000000 -0.000001 0.000000 0.000000 -0.000002 0.000001 -0.000000 17.911698 15.987186 -6.208382 -25.698010 8.203455 42.215473 -43.894296 64.830796 46.116283 -15.310482 -0.078032 13.593828 44.001267 4.361181 17.956019 5.070523 -22.807894 -20.215456 0.000000 -0.000003 0.000001 18.304827 0.012555 38.005659 -4.099261 9.008335 33.275780 0.000001 0.000000 0.000000 -3.534707 -2.357710 33.404054 0.748131 -2.739500 30.409365 -0.000002 0.000001 0.000001 -12.851675 -10.019281 31.159180 -9.057070 -8.689599 30.024757 0.000002 0.000002 -0.000000 -16.506467 -3.157132 36.328444 0.685824 -2.693065 30.036553 -0.000001 -0.000002 0.000001 -0.000002 -0.000003 -0.000000 -0.000003 -0.000004 0.000000 -0.000002 -0.000003 -0.000000 0.000000 0.000002 0.000001 0.000000 0.000002 0.000002 0.000000 0.000002 0.000001 0.000000 0.000003 0.000002 0.000003 0.000000 -0.000000 0.000003 0.000000 -0.000000 0.000003 0.000000 -0.000000 0.000003 0.000000 -0.000000 0.000003 0.000000 -0.000000 0.000003 0.000000 -0.000000 0.000003 0.000000 -0.000000 -0.000001 -0.000000 -0.000000 -0.000000 -0.000000 0.000000 
0.094975 83.487801 4.504551 -0.254035 -0.002886 -1.131923 -0.000000 0.000000 0.000000 -40.181996 -2.479236 30.373243 52.050078 -6.472700 -8.952796 -11.160598 -7.426894 -13.400596 0.000000 -0.000000 0.000000 -0.000001 0.000001 0.000001 -42.597619 -8.419423 -26.632750 52.175788 7.890984 -2.521629 -10.583691 2.247894 16.179424 -0.000000 0.000000 0.000000 0.000001 0.000000 0.000000 16.586536 0.271927 0.419371 20.119538 0.469846 0.900699 12.592138 0.364573 0.927903 0.596226 -0.183616 0.021658 0.596187 -0.183616 0.021657 -0.000001 -0.000000 -0.000000 0.596289 -0.183617 0.021658 0.596206 -0.183616 0.021658 0.000004 0.000000 -0.000000 -0.000001 -0.000000 -0.000000 20.445929 -17.628645 8.705106 -33.570182 -17.336487 -36.862230 -2.640517 -52.136197 -20.395469 -54.784141 -19.506911 -15.020216 36.774541 8.584249 -16.863129 2.295246 23.044186 15.130513 0.000000 -0.000002 -0.000003 0.652336 9.453943 -24.543685 0.393124 2.026187 -21.957658 -0.000004 0.000001 0.000000 0.652357 9.453927 -24.543692 0.393120 2.026184 -21.957661 -0.000002 -0.000001 0.000000 0.652293 9.453780 -24.541981 0.393059 2.026039 -21.955954 -0.000000 0.000001 0.000000 0.643619 9.449216 -24.541291 0.384716 2.021066 -21.956393 -0.000000 -0.000003 0.000002 -0.000001 -0.000000 0.000000 -0.000001 -0.000000 0.000000 -0.000002 -0.000000 0.000000 0.000000 -0.000003 -0.000001 0.000001 -0.000003 -0.000001 0.000000 -0.000003 -0.000001 -0.000000 -0.000002 -0.000001 18.311816 13.497359 -7.979209 -29.297178 10.275808 43.682529 -39.182473 60.008792 40.506205 -15.081138 -0.977416 14.319004 40.076169 0.945900 20.753810 5.156796 -21.099692 -19.108083 0.000000 -0.000001 0.000001 18.327833 0.099103 38.977953 -3.910206 9.274590 32.254021 0.000001 -0.000002 -0.000001 -3.492529 -2.447880 34.024516 0.778398 -2.790403 31.036977 -0.000005 -0.000001 0.000001 -12.757987 -10.091632 31.801006 -8.974634 -8.729484 30.664151 0.000001 0.000001 -0.000000 -16.765345 -2.967961 36.666354 0.750613 -2.749901 30.591430 -0.000002 -0.000000 0.000001 -0.000001 -0.000002 0.000000 -0.000001 -0.000003 0.000000 -0.000001 -0.000002 0.000000 -0.000001 0.000000 0.000001 -0.000001 0.000001 -0.000002 -0.000001 0.000000 0.000001 -0.000001 0.000001 -0.000000 -0.000002 0.000000 -0.000000 -0.000002 0.000000 -0.000000 -0.000002 0.000000 -0.000000 -0.000002 0.000000 -0.000000 -0.000002 0.000000 -0.000000 -0.000002 0.000000 -0.000000 -0.000002 0.000000 -0.000000 0.000001 0.000000 -0.000000 -0.000000 0.000000 0.000000 
